PathFileType	4	(X/Y/Z)	s06c0202.trc
DataRate	CameraRate	NumFrames	NumMarkers	Units	OrigDataRate	OrigDataStartFrame	OrigNumFrames
200	200	7	48	mm	200	750	2000
Frame#	Time	racr			lacr			c7			jug			rlel			rdr			llel			ldr			s2			lic			ric			lasi			rasi			rpsi			lpsi			rgt			lgt			rth1			rth2			rth3			rth4			rlfc			rmfc			rsh1			rsh2			rsh3			rsh4			rlmal			rcal			rtoe			rmt5			lth1			lth2			lth4			lth3			llfc			lmfc			llmal			lcal			lmt5			lsh1			lsh2			lsh3			lsh4			ltoe			SBIKE			LBIKE			RBIKE			
		X1	Y1	Z1	X2	Y2	Z2	X3	Y3	Z3	X4	Y4	Z4	X5	Y5	Z5	X6	Y6	Z6	X7	Y7	Z7	X8	Y8	Z8	X9	Y9	Z9	X10	Y10	Z10	X11	Y11	Z11	X12	Y12	Z12	X13	Y13	Z13	X14	Y14	Z14	X15	Y15	Z15	X16	Y16	Z16	X17	Y17	Z17	X18	Y18	Z18	X19	Y19	Z19	X20	Y20	Z20	X21	Y21	Z21	X22	Y22	Z22	X23	Y23	Z23	X24	Y24	Z24	X25	Y25	Z25	X26	Y26	Z26	X27	Y27	Z27	X28	Y28	Z28	X29	Y29	Z29	X30	Y30	Z30	X31	Y31	Z31	X32	Y32	Z32	X33	Y33	Z33	X34	Y34	Z34	X35	Y35	Z35	X36	Y36	Z36	X37	Y37	Z37	X38	Y38	Z38	X39	Y39	Z39	X40	Y40	Z40	X41	Y41	Z41	X42	Y42	Z42	X43	Y43	Z43	X44	Y44	Z44	X45	Y45	Z45	X46	Y46	Z46	X47	Y47	Z47	X48	Y48	Z48	
750	3.7500	557.107510	1215.983526	-92.353208	564.872899	1198.652193	-408.234606	549.712283	1317.450723	-249.887111	542.660644	1151.298215	-245.009618	483.997621	989.094925	49.673572	657.207150	906.830936	-73.246377	459.099518	962.700491	-511.416980	644.546713	914.136621	-397.988563	2.946796	1141.156515	-211.198080	145.792704	1098.522451	-394.917425	157.279950	1102.769466	-55.577099	170.686006	1050.080923	-354.343939	178.864194	1062.663873	-96.351614	38.097090	1177.322532	-179.472098	34.655003	1177.085891	-239.994195	129.001280	1025.122908	-14.760283	124.157745	1040.813936	-410.932868	228.844820	943.203999	-19.732570	305.013723	897.016300	-34.793894	347.087292	821.442682	-42.525586	325.114505	922.210067	-54.285676	376.623382	726.688989	-68.952220	356.816114	709.981202	-179.166813	291.283360	641.465806	-40.876119	233.682187	578.650984	-61.188179	152.451757	544.267007	-58.791662	245.097333	566.032375	-98.262004	77.476338	508.819705	-59.441776	18.193742	539.491458	-106.948928	151.060425	296.206872	-97.854467	81.848206	370.367705	-31.738566	182.100135	929.210193	-423.430693	254.816982	881.778993	-416.420327	281.549695	905.727560	-405.374505	294.477531	801.815486	-409.606367	345.064122	693.858314	-387.803092	350.247950	678.326776	-275.280054	254.941721	330.254081	-377.105964	184.554039	291.666750	-328.022724	378.589961	277.607602	-407.281409	323.460576	585.799926	-408.394946	323.725175	500.941461	-387.911098	282.398507	422.547534	-384.379024	349.133458	499.464433	-357.447332	464.804748	294.901038	-350.950696	-202.521458	865.948949	-215.400784	-49.140062	79.671185	-415.295253	-49.141859	79.782200	-17.729288	
751	3.7550	557.310587	1216.491703	-92.265570	565.756105	1199.257885	-407.245389	550.447121	1318.250675	-249.482973	542.630173	1152.049703	-244.254271	484.660544	989.659393	49.110365	657.800815	907.196094	-73.549170	460.160483	963.786758	-511.307771	645.257142	914.337094	-398.022777	3.069286	1143.068806	-211.907231	146.361590	1099.737815	-395.918069	156.634278	1105.058871	-56.370217	172.102211	1051.810470	-355.078737	178.486798	1064.513112	-96.653169	38.502839	1178.422328	-181.410650	35.442588	1177.908521	-242.052576	129.260524	1028.790830	-15.216907	124.782708	1039.356143	-411.626099	229.838039	948.530679	-20.571278	307.150430	903.957580	-35.289998	350.692053	829.295518	-42.413401	326.759431	929.454578	-54.824889	382.045553	734.392420	-68.889438	362.439930	717.468270	-179.379344	296.311619	649.237018	-41.079824	238.096225	586.952834	-61.379481	156.660533	553.340267	-58.858892	249.357738	574.235302	-98.451851	81.129328	518.543562	-59.650855	23.274118	549.581178	-106.434536	154.574401	305.945720	-98.050345	85.445167	380.099105	-31.925151	181.163941	926.129997	-424.729251	252.570407	876.936787	-417.478927	279.892751	900.269364	-406.604912	290.091231	795.878371	-410.125285	338.384799	687.026798	-389.230974	342.695666	671.361244	-275.507634	252.538689	322.607654	-377.376176	182.118697	285.193050	-328.283818	376.075967	267.947918	-407.154350	317.891211	578.727792	-409.517120	319.263410	493.988182	-388.855669	278.858718	414.987194	-384.938102	344.741885	492.750294	-358.334993	462.474462	283.915869	-350.668446	-202.511880	866.009104	-215.572806	-49.145564	79.697272	-415.301247	-49.128661	79.780307	-17.774064	
752	3.7600	557.378240	1217.218361	-92.343598	566.623426	1199.902842	-406.072073	551.235056	1319.209833	-248.787364	542.340879	1152.996945	-243.390733	485.334098	990.293307	48.520855	658.384385	907.752244	-73.649821	461.121682	965.032342	-511.033856	645.877428	914.697926	-398.061215	3.660809	1144.168673	-214.102141	146.982947	1101.165902	-396.735266	155.964139	1107.572993	-57.252606	173.364433	1053.618291	-355.672724	178.103063	1066.507642	-96.939439	38.945255	1179.561201	-183.724249	36.271243	1178.795329	-244.201946	129.506883	1032.799335	-15.622586	125.326746	1037.918110	-412.308417	230.728775	954.285757	-21.498768	309.182055	911.074918	-35.826739	354.260714	837.315579	-42.302452	328.358757	936.859989	-55.419445	387.479154	742.824787	-68.871243	362.775260	724.995809	-178.336562	301.509044	657.196491	-41.249169	242.818938	595.358520	-61.544150	161.143997	562.357068	-58.951294	253.919561	582.549463	-98.670097	85.181842	528.159535	-59.656452	25.879343	558.790425	-107.078898	158.720028	315.674419	-98.313863	90.016659	389.691772	-31.782335	180.023367	923.256858	-425.999908	250.084556	872.311902	-418.615368	277.971383	894.923711	-407.904889	285.522628	790.361901	-411.009075	331.491838	680.352648	-390.600599	335.711103	664.406335	-276.964841	249.762771	315.070287	-377.694483	179.245734	278.953422	-328.641831	372.960564	258.250441	-406.962811	311.887903	571.716670	-410.704556	314.299995	487.075668	-389.741244	274.853432	407.680654	-385.561616	339.893985	486.307075	-359.468810	459.549239	272.901877	-350.327967	-202.489135	866.095733	-215.708762	-49.118352	79.707120	-415.317872	-49.124994	79.817329	-17.778365	
753	3.7650	557.405066	1218.012520	-92.283964	567.467076	1200.509644	-404.918478	552.108473	1320.224723	-248.034641	541.898771	1153.685909	-242.550016	486.020893	990.927952	47.937471	658.850900	908.401942	-73.620634	461.969836	966.476471	-510.804188	646.627684	914.926126	-398.030952	4.190242	1145.401980	-216.069224	147.671674	1102.549244	-397.421224	155.297235	1110.050955	-58.137788	174.460247	1055.246985	-356.146318	177.587040	1068.438736	-97.259214	39.311533	1180.803081	-185.776326	37.032274	1179.698567	-246.368977	129.721412	1036.854254	-16.025483	125.916405	1036.542675	-412.993125	232.168704	960.180073	-22.229912	311.287940	918.734888	-36.473373	357.403404	845.789325	-41.770002	329.772523	944.530916	-56.106701	393.157023	751.180592	-68.968451	368.318801	730.573338	-179.646510	306.267524	665.483930	-41.491377	247.763812	603.852542	-61.719519	165.924116	571.260563	-58.989817	258.756269	590.991125	-98.875964	89.556283	537.613005	-59.708820	29.886353	567.957297	-107.053632	163.440398	325.280626	-98.652061	94.725567	399.066236	-31.947241	178.613227	920.650936	-427.194814	247.309165	867.917395	-419.817651	275.821964	889.832654	-409.196756	281.142878	784.697648	-411.794207	324.342224	673.959884	-392.451974	328.834161	657.436888	-279.414646	246.460977	307.852991	-378.109666	175.847961	273.033559	-329.165993	369.346586	248.945299	-406.913824	305.574056	565.004210	-412.021896	308.995012	480.457785	-390.917135	270.292300	400.644816	-386.347032	334.668623	479.543089	-360.075226	456.005364	262.243196	-350.138611	-202.477120	866.165069	-215.834224	-49.121583	79.729337	-415.335180	-49.107470	79.855136	-17.788185	
754	3.7700	557.322762	1218.703101	-92.067630	568.058203	1201.258520	-403.691294	552.909377	1321.241781	-247.121821	541.376073	1155.112241	-241.652493	486.661319	991.464479	47.463390	659.279650	909.054581	-73.621667	462.824556	967.930030	-510.583826	647.218310	915.122261	-397.927564	4.789982	1146.650899	-218.087945	148.334939	1104.027167	-397.971572	154.645136	1112.663584	-59.033183	175.392590	1056.860537	-356.520099	177.180474	1070.586352	-97.607250	39.624611	1182.148725	-187.903337	37.811007	1180.629821	-248.504518	129.959766	1041.093759	-16.702839	126.421666	1035.268261	-413.645707	232.521957	966.193798	-23.699101	313.197464	926.135561	-36.996512	360.994212	854.616980	-41.504612	331.216720	952.332832	-56.667802	398.902242	759.716041	-69.139155	378.504975	742.518860	-179.568504	311.815190	673.663629	-41.609404	252.977843	612.324924	-61.835543	170.956426	580.193695	-59.043522	263.784606	599.395386	-99.055376	94.331171	546.697587	-59.609802	34.231455	576.887657	-107.110025	168.752141	334.682890	-98.955188	99.881109	408.246240	-32.146909	176.904706	918.210516	-428.298251	244.251394	863.743744	-421.098347	273.372690	884.924954	-410.625916	275.997768	779.734872	-413.056234	317.042229	667.782564	-394.091021	321.603291	650.760962	-280.991987	242.683746	300.928346	-378.648630	171.926824	267.567426	-329.809999	365.295282	240.014692	-406.798075	299.029146	558.638204	-413.500517	303.225889	474.114902	-392.192764	265.292026	394.002150	-387.243945	329.219710	473.893117	-361.946020	451.942726	251.825646	-349.689295	-202.457086	866.238097	-215.944093	-49.103338	79.756705	-415.335836	-49.104282	79.908987	-17.795770	
755	3.7750	557.132426	1219.620141	-91.698813	568.589861	1201.978166	-402.406872	553.603892	1322.296376	-246.039481	540.657685	1155.861439	-240.555294	487.102963	992.307925	47.275264	659.725442	909.847014	-73.513552	463.654039	969.347971	-510.291775	647.857599	915.433388	-397.874197	5.492336	1148.097007	-219.938886	148.825378	1105.349924	-398.234794	154.780112	1115.442946	-59.503303	175.999565	1058.240563	-356.593207	177.657309	1072.904300	-97.461216	40.046181	1183.354746	-190.128131	38.595917	1181.565374	-250.562031	130.190556	1045.516319	-17.498346	126.997889	1034.066128	-414.271649	233.626074	972.121351	-24.401725	315.091172	933.368513	-37.644848	364.765403	862.884666	-41.311510	332.752201	960.181975	-57.180062	404.630652	768.493633	-69.182677	381.038577	749.769811	-179.420510	317.414185	681.955919	-41.873764	258.439286	620.777508	-61.953927	176.229641	588.916689	-59.046525	268.902104	608.509019	-98.642707	99.399307	555.457183	-59.533063	39.298234	585.766811	-106.946467	174.779986	344.016279	-99.173264	105.571545	417.089854	-32.308302	174.959944	915.957919	-429.293075	240.955104	859.805275	-422.478085	270.651671	880.237071	-412.208947	270.586338	775.016678	-414.379501	309.571655	661.900017	-395.751715	313.748034	644.621745	-282.510141	238.417293	294.565334	-379.295501	167.484407	262.726860	-330.922704	360.740552	231.325338	-406.754956	292.227508	552.574031	-415.065499	297.116694	468.083358	-393.543834	259.827545	387.698856	-388.157937	323.353739	468.252412	-363.617119	447.348984	241.587769	-349.308909	-202.436554	866.309099	-216.004989	-49.114073	79.770420	-415.369789	-49.102962	79.929301	-17.814916	
756	3.7800	556.838414	1220.440181	-91.224790	569.011088	1202.910483	-401.069814	554.207161	1323.293969	-244.806105	539.928552	1156.526758	-239.447229	487.411715	993.006250	47.221029	660.104236	910.664720	-73.298421	464.452421	970.818683	-510.134015	648.476994	915.752088	-397.970974	5.980592	1149.213259	-221.666493	149.425181	1106.674601	-398.413665	154.263192	1117.909832	-60.523243	176.640928	1059.543174	-356.618518	177.099972	1074.752683	-97.901083	40.390210	1184.679904	-192.102335	39.418013	1182.422331	-252.479718	130.459568	1049.923831	-18.222018	127.593692	1032.912970	-414.819685	233.948429	979.308277	-23.996386	317.257486	941.379612	-37.802646	368.240823	871.678283	-41.684139	334.256214	968.069881	-57.679250	410.324634	777.264892	-69.500761	387.257208	758.261744	-179.917328	323.084595	690.302624	-42.153543	263.994013	629.151028	-62.099766	181.801738	597.520882	-59.064697	274.465715	616.835432	-98.724574	104.756918	563.995833	-59.544125	44.128033	593.708484	-106.956698	181.405158	353.166892	-99.398252	112.072900	425.750327	-32.335422	172.899424	913.813512	-430.227839	237.466794	855.948132	-423.867485	267.717827	875.712034	-413.923235	264.973203	770.469887	-415.864287	302.012486	656.398804	-397.470266	305.620430	639.094083	-283.986079	233.742823	288.585142	-380.085954	162.743323	258.081302	-331.916149	355.802359	222.853436	-406.790412	285.104041	546.730090	-416.547185	290.718696	462.466611	-394.976304	253.876328	381.939643	-389.211831	317.178846	462.766898	-365.196317	442.279601	231.663316	-348.824070	-202.418760	866.393824	-216.048120	-49.108837	79.770373	-415.366765	-49.083299	79.952105	-17.840079	
